<svg width="24" height="27" viewBox="0 0 24 27" fill="none" xmlns="http://www.w3.org/2000/svg">
<path d="M24.002 22.3908C24.002 22.7009 23.6993 23.1249 23.0977 23.6649C21.4791 25.1729 19.4839 25.9263 17.1121 25.925C15.5687 25.925 14.4474 25.5976 13.7482 24.9429C13.0491 24.2882 12.5874 23.1129 12.3631 21.4168C10.668 24.5369 8.35223 26.097 5.4158 26.097C3.7972 26.097 2.48927 25.583 1.49199 24.5549C0.494711 23.5269 -0.00460126 22.1935 -0.00592041 20.5548C-0.00592041 15.7546 4.06037 12.9192 12.1929 12.0485V10.8484C12.1929 7.04295 12.061 4.70219 11.7972 3.82616L11.7418 3.54215C11.2141 1.64075 9.87716 0.68938 7.7309 0.688047C6.4909 0.688047 5.49362 1.04939 4.73907 1.77209C3.98517 2.49611 3.60922 3.19814 3.60922 3.88416C3.60922 4.26418 4.06037 4.48419 4.96464 4.56819C6.31941 4.68153 6.9968 5.51889 6.9968 7.08028C7.00819 7.46561 6.94158 7.84922 6.80106 8.2076C6.66053 8.56597 6.44905 8.89155 6.17959 9.16436C5.90133 9.43994 5.57045 9.65531 5.20711 9.79733C4.84377 9.93935 4.45558 10.005 4.06629 9.99039C2.97404 9.99039 2.08032 9.65704 1.38513 8.99035C1.04223 8.66646 0.771658 8.27233 0.59149 7.83429C0.411322 7.39626 0.325705 6.92441 0.340357 6.45026C0.340357 4.8102 1.149 3.32348 2.76628 1.99009C4.38356 0.656712 6.51069 -0.00997925 9.14768 -0.00997925C13.0629 -0.00997925 15.7923 0.694047 17.3357 2.1021C18.5783 3.28214 19.1996 5.33688 19.1996 8.26632V18.0287C19.1996 19.9314 19.2187 21.0348 19.257 21.3388C19.443 22.9389 19.9911 23.7389 20.8934 23.7389C21.5332 23.7389 22.3247 23.2822 23.2679 22.3688C23.4658 22.1688 23.6063 22.0828 23.719 22.0828C23.7595 22.077 23.8007 22.0812 23.8392 22.095C23.8777 22.1088 23.9123 22.1319 23.9401 22.1621C23.9679 22.1924 23.9881 22.229 23.9988 22.2688C24.0096 22.3086 24.0107 22.3505 24.002 22.3908V22.3908ZM12.1989 15.5906V12.7905C8.54616 13.5145 6.72044 15.6079 6.72176 19.0707C6.72176 21.7375 7.62537 23.0709 9.43261 23.0709C10.447 23.0709 11.162 22.5002 11.5776 21.3588C11.9931 20.2174 12.2002 18.2947 12.1989 15.5906V15.5906Z" fill="black"/>
</svg>
